<?xml version="1.0" encoding="utf-8"?>
<!-- Generator: Adobe Illustrator 26.5.0, SVG Export Plug-In . SVG Version: 6.00 Build 0)  -->
<svg version="1.1" id="Layer_1" xmlns="http://www.w3.org/2000/svg" xmlns:xlink="http://www.w3.org/1999/xlink" x="0px" y="0px"
	 viewBox="0 0 640 150" style="enable-background:new 0 0 640 150;" xml:space="preserve">
<style type="text/css">
	.st0{fill:#26262D;}
	.st1{fill:url(#SVGID_1_);}
</style>
<g id="Main_Logo">
	<g>
		<polygon class="st0" points="210.6,36.4 207.8,36.4 197.4,122.6 238.7,122.6 239,119.9 200.5,119.9 		"/>
		<polygon class="st0" points="223.7,30 221,30 211.2,111 240.1,111 240.4,108.2 214.3,108.2 		"/>
		<path class="st0" d="M285.4,89.3c-1.4-8.6-6.3-13.1-14.4-13.1c0,0,0,0,0,0h0c-4.8,0-8.6,1.7-11.3,5.1c-1.6,2-2.9,4.7-3.7,7.9
			l-0.5,1.7h30.2h0L285.4,89.3z M259.1,88.2c0.8-2.3,1.8-4.2,3.1-5.6c2.2-2.4,5.1-3.6,8.7-3.6c6.2,0,9.9,3,11.4,9.2H259.1z"/>
		<path class="st0" d="M379.1,76.2c-7.7,0-12.8,4.4-15.1,13l-0.5,1.7h30.2l-0.3-1.6C392.1,80.7,387.2,76.2,379.1,76.2z M367.2,88.2
			c2.1-6.2,6-9.2,11.9-9.2c6.2,0,9.9,3,11.4,9.2H367.2z"/>
		<path class="st0" d="M379.7,66c-8.2,0-15.1,2.9-20.4,8.7c-5.4,5.8-8.1,13.1-8.1,21.7c0,8.2,2.5,14.9,7.4,19.9
			c4.9,5,11.6,7.5,19.9,7.5c5.2,0,9.6-0.9,13.1-2.7c3.5-1.8,6.8-4.9,10.1-9.3l-2.2-1.6c-3,4-6,6.9-9.1,8.5
			c-3.1,1.6-7.1,2.4-11.8,2.4c-7.5,0-13.5-2.2-17.9-6.7c-4.4-4.4-6.6-10.5-6.6-17.9c0-7.9,2.5-14.5,7.4-19.8
			c4.9-5.3,10.9-7.8,18.4-7.8c7.2,0,12.7,2.3,16.9,7c4.2,4.7,6.3,11.2,6.3,19.2c0,0.7,0,1.6-0.1,2.9h-39.4v1.4
			c0,4.2,1.5,7.7,4.3,10.4c2.9,2.7,6.6,4,11,4c6,0,10.8-2.3,14-6.9l-2.3-1.6c-2.7,3.9-6.6,5.8-11.7,5.8c-3.7,0-6.7-1.1-9.1-3.3
			c-2-1.9-3.1-4.2-3.4-7h39.2l0.1-1.3c0.1-2,0.2-3.5,0.2-4.4c0-8.7-2.4-15.8-7-21C394,68.7,387.7,66,379.7,66z"/>
		<polygon class="st0" points="418.9,36.4 408.4,122.6 411.2,122.6 421.7,36.4 		"/>
		<polygon class="st0" points="431.6,30 420.4,122.6 423.1,122.6 434.3,30 		"/>
		<path class="st0" d="M306.2,60.5l14.9,45.1L363.1,30l-2.4-1.3l-38.9,70.1l-14.9-45l-13.7,24.1c-0.8-1.3-1.7-2.6-2.7-3.8
			c-4.6-5.3-11-7.9-18.9-7.9c-8.2,0-15.1,2.9-20.4,8.7c-5.4,5.8-8.1,13.1-8.1,21.7c0,8.2,2.5,14.9,7.4,19.9c4.9,5,11.6,7.5,19.9,7.5
			c5.2,0,9.6-0.9,13.1-2.7c3.5-1.8,6.8-4.9,10.1-9.3l-2.2-1.6c-3,4-6,6.9-9.1,8.5c-3.1,1.6-7.1,2.4-11.8,2.4
			c-7.5,0-13.5-2.2-17.9-6.7c-4.4-4.4-6.6-10.5-6.6-17.9c0-7.9,2.5-14.5,7.4-19.8c4.9-5.3,10.9-7.8,18.4-7.8c7.2,0,12.7,2.3,16.9,7
			c4.2,4.7,6.3,11.2,6.3,19.2c0,0.7,0,1.6-0.1,2.9h-39.4v1.4c0,4.2,1.5,7.7,4.3,10.4c2.9,2.7,6.6,4,11,4c6,0,10.8-2.3,14-6.9
			l-2.3-1.6c-2.7,3.9-6.6,5.8-11.7,5.8c-3.7,0-6.7-1.1-9.1-3.3c-2-1.9-3.1-4.2-3.4-7h39.2l0.1-1.3c0.1-2,0.2-3.5,0.2-4.4
			c0-5.4-0.9-10.2-2.7-14.4L306.2,60.5z"/>
		<polygon class="st0" points="359.5,56.4 318.8,124.1 306.4,84.3 303.8,85.1 318,130.9 361.8,57.8 		"/>
	</g>
	<linearGradient id="SVGID_1_" gradientUnits="userSpaceOnUse" x1="11.5239" y1="154.963" x2="193.7746" y2="16.7729">
		<stop  offset="0" style="stop-color:#45D9FF"/>
		<stop  offset="0.6" style="stop-color:#4EE6C3"/>
		<stop  offset="1" style="stop-color:#4EE7C0"/>
	</linearGradient>
	<path class="st1" d="M73.8,53.5L0,146.5l0,0L74.2,38.3l35.2,58.6L180.2,0l7.5,5.2l-78.5,107.5L73.8,53.5z M109.3,150l77.3-106.5
		l-7.5-5.2l-69.7,96L74.2,75.6l-56.1,69.3l0,0l55.7-54.1L109.3,150z"/>
	<path class="st0" d="M480.2,49.4l-9,73.3h-12.6l9-73.3h-25.8l1.4-11.7h68.1l-1.4,11.7H480.2z"/>
	<path class="st0" d="M495.5,101.1c0,3.8,1.3,7,4,9.4c2.7,2.5,6.1,3.7,10.3,3.7c5.7,0,10.1-2.1,13.1-6.4l9.1,5
		c-3.2,4.3-6.4,7.2-9.8,8.9c-3.4,1.7-7.6,2.6-12.7,2.6c-8.1,0-14.5-2.4-19.2-7.1c-4.8-4.7-7.2-11.1-7.2-19c0-8.3,2.6-15.2,7.9-20.8
		c5.2-5.5,11.8-8.3,19.8-8.3c7.7,0,13.8,2.5,18.3,7.5c4.5,5,6.8,11.8,6.8,20.2c0,0.9-0.1,2.3-0.2,4.3H495.5z M523.5,91.3
		c-1.3-8-5.7-12-13.3-12c-7.2,0-11.8,4-14,12H523.5z"/>
	<path class="st0" d="M587.3,75.8l-1.5,12.4c-2.5-3.2-4.9-5.5-7.2-6.9c-2.2-1.4-4.9-2-7.9-2c-4.6,0-8.4,1.7-11.4,5.1
		c-3,3.4-4.5,7.8-4.5,13.2c0,5,1.4,9.1,4.2,12.1c2.8,3,6.5,4.6,11,4.6c4.3,0,8.7-1.9,13.3-5.6l-1.6,12.8c-4.7,1.9-9.2,2.9-13.5,2.9
		c-7.6,0-13.8-2.5-18.6-7.4c-4.7-5-7.1-11.4-7.1-19.3c0-8.1,2.6-14.9,7.7-20.3c5.1-5.5,11.5-8.2,19.2-8.2
		C575.6,69.1,581.6,71.4,587.3,75.8z"/>
	<path class="st0" d="M613.9,29.7l-5.6,45.5c4.9-3.8,9.9-5.7,14.9-5.7c5.1,0,9.1,1.3,12.1,4c3.1,2.6,4.7,6.1,4.7,10.4
		c0,1-0.1,2.2-0.2,3.5c-0.1,1.3-0.3,2.8-0.4,4.4l-3.8,30.8h-12.2l3.9-31.4c0.2-1.7,0.3-3.2,0.3-4.6c0-4.6-2.7-6.9-8.2-6.9
		c-7.8,0-12.3,5.3-13.6,15.8l-3.4,27.2h-12.2l11.5-93H613.9z"/>
</g>
</svg>
