<?xml version="1.0" encoding="utf-8"?>
<!-- Generator: Adobe Illustrator 23.0.6, SVG Export Plug-In . SVG Version: 6.00 Build 0)  -->
<svg version="1.1" id="Layer_1" xmlns="http://www.w3.org/2000/svg" xmlns:xlink="http://www.w3.org/1999/xlink" x="0px" y="0px"
	 viewBox="0 0 20 20" style="enable-background:new 0 0 20 20;" xml:space="preserve">
<style type="text/css">
	.st0{fill:#FF3795;}
	.st1{fill:#3A255B;}
</style>
<path class="st0" d="M20,10c0-0.3-0.1-0.5-0.3-0.7l-1.6-1.4l0.6-2c0.1-0.3,0.1-0.6-0.1-0.8c-0.1-0.2-0.4-0.4-0.7-0.5l-2.1-0.5
	L15.5,2c-0.1-0.3-0.2-0.5-0.5-0.7c-0.2-0.1-0.3-0.1-0.5-0.1c-0.1,0-0.2,0-0.3,0l-2,0.6l-1.4-1.6C10.5,0.1,10.3,0,10,0
	S9.5,0.1,9.3,0.3L7.8,1.9l-2-0.6c-0.1,0-0.2,0-0.3,0c-0.2,0-0.3,0-0.5,0.1C4.8,1.5,4.6,1.7,4.5,2L4.1,4.1L2,4.5
	C1.7,4.6,1.5,4.8,1.3,5C1.2,5.2,1.2,5.5,1.3,5.8l0.6,2L0.3,9.3C0.1,9.5,0,9.7,0,10s0.1,0.5,0.3,0.7l1.6,1.4l-0.6,2
	c-0.1,0.3-0.1,0.6,0.1,0.8c0.1,0.2,0.4,0.4,0.7,0.5l2.1,0.5L4.5,18c0.1,0.3,0.2,0.5,0.5,0.7c0.2,0.1,0.3,0.1,0.5,0.1
	c0.1,0,0.2,0,0.3,0l2-0.6l1.4,1.6C9.5,19.9,9.7,20,10,20s0.5-0.1,0.7-0.3l1.4-1.6l2,0.6c0.1,0,0.2,0,0.3,0c0.2,0,0.3,0,0.5-0.1
	c0.2-0.1,0.4-0.4,0.5-0.7l0.5-2.1l2.1-0.5c0.3-0.1,0.5-0.2,0.7-0.5c0.1-0.2,0.2-0.5,0.1-0.8l-0.6-2l1.6-1.4C19.9,10.5,20,10.3,20,10
	z"/>
<g>
	<path class="st1" d="M5.9,13.6c-0.2,0-0.5-0.1-0.6-0.2c-0.4-0.4-0.5-1-0.1-1.4l2.6-3c0.2-0.2,0.5-0.4,0.8-0.4
		c0.3,0,0.6,0.2,0.8,0.5l1.1,1.8l2.9-3.9c0.3-0.4,1-0.5,1.4-0.2c0.4,0.3,0.5,1,0.2,1.4l-3.8,5.1c-0.2,0.3-0.5,0.4-0.8,0.4
		c-0.3,0-0.6-0.2-0.8-0.5l-1.1-1.9l-1.7,2C6.5,13.4,6.2,13.6,5.9,13.6z"/>
</g>
</svg>
